<?xml version="1.0" encoding="UTF-8" standalone="no"?>
<svg
   width="1700"
   height="600"
   viewBox="0 0 1700 600"
   version="1.1"
   id="svg4"
   sodipodi:docname="lumo_logo_horizontal_color.svg"
   inkscape:version="1.4.3 (0d15f75, 2025-12-25)"
   inkscape:export-filename="lumo_logo_horizontal_color.png"
   inkscape:export-xdpi="96"
   inkscape:export-ydpi="96"
   xmlns:inkscape="http://www.inkscape.org/namespaces/inkscape"
   xmlns:sodipodi="http://sodipodi.sourceforge.net/DTD/sodipodi-0.dtd"
   xmlns="http://www.w3.org/2000/svg"
   xmlns:svg="http://www.w3.org/2000/svg">
  <sodipodi:namedview
     id="namedview4"
     pagecolor="#505050"
     bordercolor="#eeeeee"
     borderopacity="1"
     inkscape:showpageshadow="0"
     inkscape:pageopacity="0"
     inkscape:pagecheckerboard="0"
     inkscape:deskcolor="#505050"
     inkscape:zoom="0.437"
     inkscape:cx="1000"
     inkscape:cy="300.91533"
     inkscape:window-width="1920"
     inkscape:window-height="1052"
     inkscape:window-x="0"
     inkscape:window-y="0"
     inkscape:window-maximized="0"
     inkscape:current-layer="svg4" />
  <defs
     id="defs2">
    <linearGradient
       id="g"
       x1="86.28582"
       y1="335.77066"
       x2="375.73666"
       y2="335.77066"
       gradientTransform="matrix(1.7076693,0,0,0.76721621,-10.008134,-86.345484)"
       gradientUnits="userSpaceOnUse">
      <stop
         offset="0%"
         stop-color="#3B82F6"
         id="stop1" />
      <stop
         offset="100%"
         stop-color="#22C55E"
         id="stop2" />
    </linearGradient>
  </defs>
  <path
     d="m 617.76534,282.29893 -0.0213,1.88008 -0.0427,1.8678 -0.0852,1.88009 -0.12795,1.8678 -0.14926,1.86779 -0.18126,1.8678 -0.2239,1.85551 -0.25588,1.85551 -0.28788,1.84322 -0.31986,1.83094 -0.35183,1.83093 -0.38383,1.81865 -0.42648,1.80635 -0.4478,1.79407 -0.47979,1.78178 -0.51177,1.7695 -0.54376,1.7572 -0.57574,1.74492 -0.60772,1.72034 -0.63972,1.70805 -0.66105,1.69576 -0.69302,1.6712 -0.725,1.6589 -0.74634,1.63432 -0.77832,1.62203 -0.81031,1.59746 -0.83163,1.58518 -0.85294,1.5483 -0.88495,1.53602 -0.90626,1.51144 -0.92758,1.49915 -0.95958,1.46229 -0.98089,1.43771 -1.00222,1.42543 -1.02354,1.38856 -1.04487,1.36398 -1.06619,1.3517 -1.08752,1.31484 -1.09818,1.29025 -1.13016,1.26568 -1.14083,1.2411 -1.16215,1.20424 -1.1728,1.19195 -1.19414,1.15509 -1.21546,1.1305 -1.22612,1.10593 -1.23678,1.06907 -1.2581,1.0445 -1.26878,1.01992 -1.27943,0.99533 -1.29009,0.95848 -1.30075,0.9339 -1.32207,0.90933 -1.32208,0.87245 -1.3434,0.84788 -1.3434,0.82331 -1.35407,0.79873 -1.36472,0.76186 -1.37539,0.73729 -1.37539,0.71271 -1.38605,0.67585 -1.3967,0.66357 -1.39671,0.62669 -1.39672,0.60212 -1.40737,0.56525 -1.41803,0.55297 -1.41804,0.5161 -1.41804,0.49153 -1.41803,0.46695 -1.42869,0.44237 -1.4287,0.40551 -1.4287,0.39322 -1.42869,0.36864 -1.43936,0.33178 -1.4287,0.30721 -1.43936,0.29491 -1.4287,0.25805 -1.42869,0.24576 -1.43936,0.2089 -1.4287,0.19662 -1.42869,0.17203 -1.4287,0.14746 -1.4287,0.12288 -1.41803,0.0983 -1.42869,0.0738 -1.41804,0.0615 -1.40738,0.0369 -1.41802,0.0123 -1.40738,-0.0123 -1.40737,-0.0246 -1.39672,-0.0492 -1.40736,-0.0737 -1.38605,-0.086 -1.38605,-0.0983 -1.38605,-0.13517 -1.38605,-0.13517 -1.37539,-0.17204 -1.36472,-0.17203 -1.36472,-0.2089 -1.35407,-0.2089 -1.35406,-0.23348 -1.35406,-0.25805 -1.34341,-0.25805 -1.33273,-0.28262 -1.33274,-0.30721 -1.32208,-0.3072 -1.31141,-0.33178 -1.31143,-0.34407 -1.31141,-0.36864 -1.30075,-0.36864 -1.29009,-0.39323 -1.29009,-0.40551 -1.27943,-0.4178 -1.26878,-0.43008 -1.26876,-0.44237 -1.2581,-0.45467 -1.24745,-0.46695 -1.24745,-0.47923 -1.24744,-0.50381 -1.22612,-0.50382 -1.22612,-0.5161 -1.22612,-0.52839 -1.20479,-0.54067 -1.20481,-0.55297 -1.20479,-0.55297 -1.19414,-0.57755 -1.18346,-0.57753 -1.17282,-0.60213 -1.1728,-0.60212 -1.17282,-0.60212 -1.15148,-0.62669 -1.15148,-0.62669 -1.15149,-0.63899 -1.14083,-0.65127 -1.13017,-0.65128 -1.1195,-0.66355 -1.11949,-0.67585 -1.1195,-0.68814 -1.10884,-0.68813 -1.09818,-0.68814 -1.08752,-0.71271 -1.08751,-0.71271 -1.08752,-0.71272 -1.06619,-0.725 -1.07685,-0.73728 -1.05553,-0.7373 -1.06619,-0.73729 -1.04487,-0.74957 -1.04487,-0.76187 -1.04486,-0.76186 -1.02355,-0.77415 -1.0342,-0.77416 -1.02355,-0.77415 -1.01288,-0.78644 -1.01288,-0.79873 -1.00222,-0.78644 -1.00223,-0.79873 -0.99155,-0.81102 -0.99156,-0.81102 -0.9809,-0.81102 -0.98089,-0.82331 -0.98089,-0.82329 -0.97024,-0.8356 -0.95957,-0.8233 -0.95957,-0.8356 -0.95958,-0.84789 -0.9489,-0.84788 -0.93826,-0.84788 -0.9489,-0.84788 -0.93826,-0.84788 -0.92758,-0.86017 -0.92759,-0.87246 -0.92758,-0.86017 -0.91693,-0.87246 -0.91693,-0.87246 -0.90625,-0.87246 -0.91693,-0.87245 -0.8956,-0.88475 -0.90626,-0.88475 -0.89561,-0.88475 -0.89559,-0.88474 -0.88494,-0.88474 -0.88495,-0.89704 -0.88493,-0.89704 -0.87428,-0.89703 -0.88494,-0.89704 -0.87428,-0.89703 -0.86361,-0.90933 -0.87428,-0.90931 -0.86361,-0.90933 -0.85296,-0.90933 -0.86361,-0.90931 -0.85295,-0.90933 -0.85295,-0.90932 -0.85296,-0.92161 -0.85295,-0.92161 -0.8423,-0.90933 -0.84229,-0.92161 -0.84228,-0.92161 -0.84229,-0.9339 -0.8423,-0.92161 -0.83163,-0.92161 -0.84229,-0.92161 -0.83163,-0.9339 -0.83163,-0.9339 -0.82097,-0.92161 -0.83162,-0.9339 -0.83163,-0.9339 -0.82097,-0.93389 -0.82097,-0.92162 -0.82096,-0.9339 -0.82097,-0.9339 -0.82097,-0.94619 -0.82097,-0.9339 -0.82097,-0.9339 -0.82096,-0.93389 -0.81031,-0.9339 -0.82097,-0.94619 -0.8103,-0.9339 -0.82097,-0.9339 -0.81031,-0.94618 -0.82096,-0.9339 -0.81031,-0.93391 -0.82096,-0.94618 -0.8103,-0.93389 -0.81031,-0.9339 -0.82097,-0.94619 -0.8103,-0.9339 -0.82097,-0.9339 -0.81031,-0.94619 -0.82096,-0.9339 -0.81031,-0.9339 -0.82097,-0.94619 -0.8103,-0.93389 -0.82097,-0.9339 -0.82097,-0.9339 -0.82097,-0.9339 -0.82097,-0.94619 -0.82096,-0.9339 -0.82097,-0.9339 -0.82097,-0.92161 -0.82097,-0.9339 -0.83162,-0.9339 -0.83163,-0.9339 -0.82097,-0.92161 -0.83163,-0.9339 -0.83163,-0.93389 -0.84229,-0.92162 -0.83163,-0.92161 -0.84229,-0.92161 -0.8423,-0.9339 -0.84228,-0.92161 -0.84229,-0.92161 -0.84229,-0.90933 -0.85296,-0.9216 -0.85295,-0.92161 -0.85296,-0.90933 -0.85294,-0.90932 -0.86362,-0.90932 -0.85296,-0.90933 -0.86361,-0.90932 -0.87428,-0.90932 -0.86361,-0.90933 -0.87428,-0.89703 -0.88494,-0.89704 -0.87427,-0.89703 -0.88494,-0.89704 -0.88494,-0.89702 -0.88495,-0.88476 -0.89559,-0.88474 -0.8956,-0.88475 -0.90627,-0.88474 -0.89559,-0.88475 -0.91693,-0.87246 -0.90626,-0.87246 -0.91693,-0.87246 -0.91693,-0.87246 -0.92758,-0.86016 -0.92759,-0.87247 -0.92758,-0.86017 -0.93825,-0.84788 -0.94891,-0.84788 -0.93825,-0.84788 -0.94891,-0.84788 -0.95957,-0.84788 -0.95958,-0.83559 -0.95956,-0.82331 -0.97024,-0.83559 -0.9809,-0.82331 -0.98089,-0.82331 -0.9809,-0.81102 -0.99156,-0.81102 -0.99155,-0.81102 -1.00223,-0.79872 -1.00222,-0.78644 -1.01288,-0.79874 -1.01288,-0.78643 -1.02354,-0.77416 -1.03421,-0.77415 -1.02354,-0.77416 -1.04487,-0.76186 -1.04487,-0.76187 -1.04486,-0.74957 -1.06619,-0.73729 -1.05553,-0.73729 -1.07686,-0.73729 -1.06619,-0.725 -1.08751,-0.71271 -1.08752,-0.71272 -1.08751,-0.71271 -1.09818,-0.68814 -1.10884,-0.68813 -1.11951,-0.68813 -1.11949,-0.67586 -1.1195,-0.66355 -1.13017,-0.65128 -1.14082,-0.65126 -1.15148,-0.63899 -1.15149,-0.6267 -1.15149,-0.62669 -1.17281,-0.60212 -1.17281,-0.60212 -1.17282,-0.60212 -1.18346,-0.57754 -1.19414,-0.57754 -1.20479,-0.55297 -1.2048,-0.55296 -1.20479,-0.54069 -1.22613,-0.52838 -1.22612,-0.51611 -1.22612,-0.50381 -1.24744,-0.50382 -1.24744,-0.47923 -1.24745,-0.46695 -1.25811,-0.45467 -1.26876,-0.44237 -1.26878,-0.43008 -1.27942,-0.4178 -1.29009,-0.40551 -1.29009,-0.39322 -1.30075,-0.36865 -1.31142,-0.36864 -1.31141,-0.34407 -1.31143,-0.33177 -1.32207,-0.30721 -1.33274,-0.30721 -1.33274,-0.28262 -1.3434,-0.25805 -1.35407,-0.25805 -1.35406,-0.23348 -1.35406,-0.2089 -1.36472,-0.2089 -1.36473,-0.17203 -1.37538,-0.17204 -1.38605,-0.13517 -1.38606,-0.13516 -1.38605,-0.0983 -1.38605,-0.086 -1.40736,-0.0737 -1.39671,-0.0492 -1.40738,-0.0246 -1.40737,-0.0123 -1.41803,0.0123 -1.40738,0.0369 -1.41803,0.0615 -1.42869,0.0737 -1.41804,0.0983 -1.4287,0.12289 -1.42869,0.14745 -1.4287,0.17203 -1.4287,0.19662 -1.43935,0.2089 -1.4287,0.24576 -1.4287,0.25805 -1.43935,0.29491 -1.4287,0.30721 -1.43937,0.33178 -1.42869,0.36864 -1.4287,0.39322 -1.4287,0.40551 -1.42869,0.44237 -1.41803,0.46695 -1.41804,0.49153 -1.41803,0.5161 -1.41803,0.55297 -1.40738,0.56525 -1.39671,0.60212 -1.39672,0.62669 -1.3967,0.66357 -1.38605,0.67585 -1.37539,0.71271 -1.37539,0.73729 -1.36472,0.76186 -1.35406,0.79873 -1.34341,0.82331 -1.3434,0.84788 -1.32207,0.87245 -1.32208,0.90933 -1.30075,0.9339 -1.29009,0.95848 -1.27943,0.99533 -1.26877,1.01992 -1.25811,1.0445 -1.23678,1.06907 -1.22612,1.10593 -1.21545,1.1305 -1.19414,1.15509 -1.17281,1.19195 -1.16215,1.20424 -1.14083,1.2411 -1.13016,1.26568 -1.09818,1.29025 -1.08751,1.31484 -1.06619,1.3517 -1.04487,1.36398 -1.02355,1.38856 -1.00221,1.42543 -0.9809,1.43771 -0.95957,1.46229 -0.92758,1.49915 -0.90627,1.51145 -0.88494,1.53601 -0.85295,1.5483 -0.83163,1.58518 -0.8103,1.59746 -0.77832,1.62203 -0.74634,1.63433 -0.72501,1.6589 -0.69302,1.67119 -0.66105,1.69576 -0.6397,1.70805 -0.60774,1.72034 -0.57574,1.74492 -0.54376,1.7572 -0.51177,1.7695 -0.47978,1.78178 -0.44781,1.79407 -0.42647,1.80635 -0.38384,1.81865 -0.35183,1.83094 -0.31986,1.83093 -0.28787,1.84322 -0.25589,1.85551 -0.2239,1.85551 -0.18126,1.8678 -0.14926,1.8678 -0.12795,1.86779 -0.0853,1.88009 -0.0427,1.8678 -0.0213,1.88009 0.0213,1.88008 0.0427,1.8678 0.0853,1.88009 0.12795,1.8678 0.14926,1.86779 0.18126,1.8678 0.2239,1.85552 0.25589,1.8555 0.28787,1.84323 0.31986,1.83093 0.35183,1.83094 0.38384,1.81864 0.42647,1.80636 0.44781,1.79407 0.47978,1.78178 0.51177,1.76949 0.54376,1.75721 0.57574,1.74491 0.60774,1.72034 0.6397,1.70805 0.66105,1.69577 0.69302,1.67119 0.72501,1.6589 0.74634,1.63432 0.77832,1.62204 0.8103,1.59745 0.83163,1.58518 0.85295,1.54831 0.88494,1.53601 0.90627,1.51144 0.92758,1.49916 0.95957,1.46228 0.9809,1.43772 1.00221,1.42542 1.02355,1.38857 1.04487,1.36398 1.06619,1.3517 1.08751,1.31483 1.09818,1.29026 1.13016,1.26567 1.14083,1.24111 1.16215,1.20423 1.17281,1.19195 1.19414,1.15509 1.21545,1.13051 1.22612,1.10593 1.23678,1.06907 1.25811,1.04449 1.26877,1.01992 1.27943,0.99534 1.29009,0.95847 1.30075,0.9339 1.32208,0.90933 1.32207,0.87245 1.3434,0.84789 1.34341,0.8233 1.35406,0.79873 1.36472,0.76187 1.37539,0.73728 1.37539,0.71271 1.38605,0.67586 1.3967,0.66356 1.39672,0.62669 1.39671,0.60212 1.40738,0.56526 1.41803,0.55296 1.41803,0.51611 1.41804,0.49152 1.41803,0.46695 1.42869,0.44238 1.4287,0.4055 1.4287,0.39322 1.42869,0.36864 1.43937,0.33179 1.4287,0.3072 1.43935,0.29491 1.4287,0.25805 1.4287,0.24577 1.43935,0.2089 1.4287,0.19661 1.4287,0.17203 1.42869,0.14747 1.4287,0.12288 1.41804,0.0983 1.42869,0.0738 1.41803,0.0615 1.40738,0.0369 1.41803,0.0123 1.40737,-0.0123 1.40738,-0.0246 1.39671,-0.0492 1.40736,-0.0737 1.38605,-0.086 1.38605,-0.0983 1.38606,-0.13517 1.38605,-0.13517 1.37538,-0.17204 1.36473,-0.17203 1.36472,-0.2089 1.35406,-0.2089 1.35406,-0.23347 1.35407,-0.25805 1.3434,-0.25805 1.33274,-0.28263 1.33274,-0.3072 1.32207,-0.3072 1.31143,-0.33178 1.31141,-0.34407 1.31142,-0.36865 1.30075,-0.36864 1.29009,-0.39323 1.29009,-0.4055 1.27942,-0.4178 1.26878,-0.43008 1.26876,-0.44238 1.25811,-0.45466 1.24745,-0.46695 1.24744,-0.47924 1.24744,-0.50381 1.22612,-0.50381 1.22612,-0.5161 1.22613,-0.5284 1.20479,-0.54067 1.2048,-0.55297 1.20479,-0.55297 1.19414,-0.57754 1.18346,-0.57754 1.17282,-0.60213 1.17281,-0.60212 1.17281,-0.60211 1.15149,-0.6267 1.15149,-0.62669 1.15148,-0.63899 1.14082,-0.65127 1.13017,-0.65127 1.1195,-0.66356 1.11949,-0.67585 1.11951,-0.68814 1.10884,-0.68813 1.09818,-0.68814 1.08751,-0.71271 1.08752,-0.71271 1.08751,-0.71271 1.06619,-0.725 1.07686,-0.73729 1.05553,-0.7373 1.06619,-0.73728 1.04486,-0.74958 1.04487,-0.76187 1.04487,-0.76186 1.02354,-0.77415 1.03421,-0.77416 1.02354,-0.77414 1.01288,-0.78645 1.01288,-0.79873 1.00222,-0.78644 1.00223,-0.79873 0.99155,-0.81102 0.99156,-0.81102 0.9809,-0.81102 0.98089,-0.8233 0.9809,-0.8233 0.97024,-0.83559 0.95956,-0.82331 0.95958,-0.83559 0.95957,-0.84789 0.94891,-0.84789 0.93825,-0.84788 0.94891,-0.84788 0.93825,-0.84788 0.92758,-0.86017 0.92759,-0.87246 0.92758,-0.86017 0.91693,-0.87245 0.91693,-0.87247 0.90626,-0.87245 0.91693,-0.87246 0.89559,-0.88475 0.90627,-0.88474 0.8956,-0.88476 0.89559,-0.88474 0.88495,-0.88474 0.88494,-0.89704 0.88494,-0.89704 0.87427,-0.89703 0.88494,-0.89704 0.87428,-0.89703 0.86361,-0.90932 0.87428,-0.90932 0.86361,-0.90933 0.85296,-0.90932 0.86362,-0.90932 0.85294,-0.90932 0.85296,-0.90933 0.85295,-0.92161 0.85296,-0.92161 0.84229,-0.90932 0.84229,-0.92162 0.84228,-0.9216 0.8423,-0.9339 0.84229,-0.92162 0.83163,-0.92161 0.84229,-0.9216 0.83163,-0.9339 0.83163,-0.9339 0.82097,-0.92162 0.83163,-0.9339 0.83162,-0.9339 0.82097,-0.93389 0.82097,-0.92161 0.82097,-0.9339 0.82096,-0.9339 0.82097,-0.94619 0.82097,-0.9339 0.82097,-0.9339 0.82097,-0.93389 0.8103,-0.9339 0.82097,-0.94619 0.81031,-0.9339 0.82096,-0.9339 0.81031,-0.94619 0.82097,-0.9339 0.8103,-0.9339 0.82097,-0.94619 0.81031,-0.93389 0.8103,-0.9339 0.82096,-0.94619 0.81031,-0.9339 0.82096,-0.9339 0.81031,-0.94619 0.82097,-0.9339 0.8103,-0.9339 0.82097,-0.94619 0.81031,-0.93389 0.82096,-0.9339 0.82097,-0.9339 0.82097,-0.9339 0.82097,-0.94619 0.82097,-0.9339 0.82096,-0.9339 0.82097,-0.9216 0.82097,-0.9339 0.83163,-0.9339 0.83162,-0.9339 0.82097,-0.92162 0.83163,-0.9339 0.83163,-0.93389 0.84229,-0.92161 0.83163,-0.92162 0.8423,-0.92161 0.84229,-0.9339 0.84228,-0.9216 0.84229,-0.92162 0.8423,-0.90932 0.85295,-0.92161 0.85296,-0.92161 0.85295,-0.90933 0.85295,-0.90931 0.86361,-0.90933 0.85296,-0.90933 0.86361,-0.90931 0.87428,-0.90933 0.86361,-0.90932 0.87428,-0.89703 0.88494,-0.89704 0.87428,-0.89703 0.88493,-0.89704 0.88495,-0.89703 0.88494,-0.88475 0.89559,-0.88475 0.89561,-0.88475 0.90626,-0.88474 0.8956,-0.88475 0.91693,-0.87246 0.90625,-0.87245 0.91693,-0.87247 0.91693,-0.87245 0.92758,-0.86017 0.92759,-0.87246 0.92758,-0.86017 0.93826,-0.84788 0.9489,-0.84788 0.93826,-0.84789 0.9489,-0.84788 0.95958,-0.84788 0.95957,-0.83559 0.95957,-0.82331 0.97024,-0.83559 0.98089,-0.82331 0.98089,-0.8233 0.9809,-0.81102 0.99156,-0.81102 0.99155,-0.81102 1.00223,-0.79873 1.00222,-0.78644 1.01288,-0.79873 1.01288,-0.78644 1.02355,-0.77416 1.0342,-0.77414 1.02355,-0.77416 1.04486,-0.76186 1.04487,-0.76187 1.04487,-0.74958 1.06619,-0.73729 1.05553,-0.73728 1.07685,-0.7373 1.06619,-0.725 1.08752,-0.71271 1.08751,-0.71271 1.08752,-0.71272 1.09818,-0.68813 1.10884,-0.68813 1.1195,-0.68814 1.11949,-0.67585 1.1195,-0.66356 1.13017,-0.65127 1.14083,-0.65127 1.15149,-0.63899 1.15148,-0.62669 1.15148,-0.6267 1.17282,-0.60211 1.1728,-0.60212 1.17282,-0.60212 1.18346,-0.57755 1.19414,-0.57754 1.20479,-0.55297 1.20481,-0.55296 1.20479,-0.54068 1.22612,-0.52839 1.22612,-0.51611 1.22612,-0.50381 1.24744,-0.50381 1.24745,-0.47924 1.24745,-0.46695 1.2581,-0.45466 1.26876,-0.44238 1.26878,-0.43008 1.27943,-0.4178 1.29009,-0.4055 1.29009,-0.39323 1.30075,-0.36864 1.31141,-0.36865 1.31143,-0.34407 1.31141,-0.33177 1.32208,-0.30721 1.33274,-0.3072 1.33273,-0.28263 1.34341,-0.25805 1.35406,-0.25805 1.35406,-0.23347 1.35407,-0.2089 1.36472,-0.2089 1.36472,-0.17203 1.37539,-0.17204 1.38605,-0.13517 1.38605,-0.13517 1.38605,-0.0983 1.38605,-0.086 1.40736,-0.0737 1.39672,-0.0492 1.40737,-0.0246 1.40738,-0.0123 1.41802,0.0123 1.40738,0.0369 1.41804,0.0615 1.42869,0.0737 1.41803,0.0983 1.4287,0.12289 1.4287,0.14746 1.42869,0.17203 1.4287,0.19661 1.43936,0.2089 1.42869,0.24576 1.4287,0.25805 1.43936,0.29491 1.4287,0.30721 1.43936,0.33178 1.42869,0.36865 1.4287,0.39321 1.4287,0.40552 1.42869,0.44237 1.41803,0.46695 1.41804,0.49152 1.41804,0.51611 1.41803,0.55296 1.40737,0.56526 1.39672,0.60211 1.39671,0.6267 1.3967,0.66356 1.38605,0.67585 1.37539,0.71271 1.37539,0.73729 1.36472,0.76186 1.35407,0.79874 1.3434,0.8233 1.3434,0.84788 1.32208,0.87246 1.32207,0.90932 1.30075,0.9339 1.29009,0.95848 1.27943,0.99534 1.26878,1.01992 1.2581,1.04449 1.23678,1.06907 1.22612,1.10593 1.21546,1.1305 1.19414,1.15509 1.1728,1.19195 1.16215,1.20424 1.14083,1.24111 1.13016,1.26567 1.09818,1.29026 1.08752,1.31483 1.06619,1.3517 1.04487,1.36398 1.02354,1.38857 1.00222,1.42542 0.98089,1.43771 0.95958,1.46229 0.92758,1.49916 0.90626,1.51144 0.88495,1.53601 0.85294,1.54831 0.83163,1.58517 0.81031,1.59746 0.77832,1.62204 0.74634,1.63432 0.725,1.6589 0.69302,1.67119 0.66105,1.69576 0.63972,1.70805 0.60772,1.72035 0.57574,1.74491 0.54376,1.75721 0.51177,1.76949 0.47979,1.78178 0.4478,1.79407 0.42648,1.80636 0.38383,1.81865 0.35183,1.83093 0.31986,1.83093 0.28788,1.84323 0.25588,1.8555 0.2239,1.85551 0.18126,1.8678 0.14926,1.86781 0.12795,1.86779 0.0852,1.88009 0.0427,1.8678 0.0213,1.88008"
     fill="none"
     stroke="url(#g)"
     stroke-width="29.7601"
     stroke-linecap="round"
     stroke-linejoin="round"
     id="path2"
     style="stroke:url(#g)" />
  <!-- Nodes -->
  <rect
     x="122.61067"
     y="254.63914"
     width="57.200001"
     height="57.200001"
     rx="7.1500001"
     fill="none"
     stroke="#3b82f6"
     stroke-width="5"
     id="rect2"
     style="fill:#ffffff;fill-opacity:0.5" />
  <circle
     cx="617.72272"
     cy="279.48532"
     r="30.030001"
     fill="none"
     stroke="#22c55e"
     stroke-width="5"
     id="circle2"
     style="fill:#ffffff;fill-opacity:0.5" />
  <circle
     cx="383.76767"
     cy="282.29916"
     r="11.7"
     fill="#6366f1"
     id="circle3" />
  <!-- Wordmark -->
  <text
     x="720"
     y="330"
     font-family="Inter, Arial, sans-serif"
     font-size="220px"
     font-weight="700"
     fill="#111827"
     id="text3"><tspan
       style="font-style:normal;font-variant:normal;font-weight:bold;font-stretch:normal;font-family:'IBM Plex Sans';-inkscape-font-specification:'IBM Plex Sans Bold'"
       id="tspan4">LUMO</tspan></text>
  <text
     x="732.0799"
     y="412.81006"
     font-family="Inter, Arial, sans-serif"
     font-size="54px"
     font-weight="400"
     fill="#111827"
     opacity="0.75"
     id="text4"><tspan
       style="font-style:normal;font-variant:normal;font-weight:normal;font-stretch:normal;font-family:'IBM Plex Sans';-inkscape-font-specification:'IBM Plex Sans, '"
       id="tspan5">Lifelong Multimodal Language Learning</tspan></text>
</svg>
